<svg id="svg" version="1.1" width="460" height="240" xmlns="http://www.w3.org/2000/svg" xmlns:xlink="http://www.w3.org/1999/xlink" ><g id="svgg"><path id="path0" d="M4.565 1.445 C 2.970 2.089,2.970 201.315,4.565 202.324 C 5.953 203.202,38.738 203.830,40.701 203.016 C 41.511 202.680,43.739 202.354,45.652 202.290 L 49.130 202.174 49.346 102.696 C 49.503 30.249,49.297 2.898,48.587 2.043 C 47.621 0.879,7.326 0.331,4.565 1.445 M55.652 20.839 C 55.652 43.219,53.916 41.338,73.881 40.591 C 107.309 39.340,115.938 44.294,116.046 64.796 C 116.150 84.730,104.881 91.206,69.957 91.277 C 60.969 91.296,56.543 91.631,55.826 92.348 C 54.400 93.774,54.400 110.574,55.826 112.000 C 56.638 112.812,56.638 113.043,55.826 113.043 C 54.389 113.043,54.389 127.085,55.826 128.522 C 57.748 130.444,72.174 129.912,72.174 127.919 C 72.174 127.014,72.717 126.065,73.380 125.810 C 74.219 125.488,74.456 125.845,74.158 126.982 C 73.650 128.927,74.812 129.249,84.783 129.927 C 101.900 131.089,106.187 135.837,109.579 157.391 C 110.595 163.848,112.221 172.261,113.192 176.087 C 114.163 179.913,115.053 183.856,115.169 184.849 C 115.564 188.227,120.296 199.196,122.284 201.341 C 125.735 205.065,137.391 203.982,137.391 199.938 C 137.391 199.494,138.467 199.136,139.783 199.144 C 141.410 199.153,141.806 199.390,141.023 199.887 C 137.389 202.191,142.487 203.422,154.871 203.231 L 167.068 203.043 168.497 200.687 C 170.099 198.046,166.181 191.596,163.135 191.860 C 161.521 192.000,161.334 191.187,162.672 189.850 C 165.003 187.519,160.532 178.293,157.039 178.226 C 155.431 178.195,155.498 178.039,157.609 176.894 C 160.508 175.321,160.530 174.539,158.010 162.609 L 156.081 153.478 152.823 153.764 C 150.040 154.007,149.565 153.793,149.565 152.293 C 149.565 151.328,149.211 150.318,148.777 150.050 C 146.890 148.884,148.840 146.261,151.307 146.650 C 152.656 146.863,154.000 146.649,154.293 146.175 C 155.317 144.519,152.279 132.673,150.444 131.161 C 149.235 130.166,149.027 129.598,149.778 129.345 C 153.267 128.167,140.424 110.620,133.913 107.670 C 132.845 107.186,132.885 107.068,134.130 107.018 C 135.836 106.949,136.094 106.007,134.770 104.683 C 134.173 104.086,135.337 103.145,138.368 101.775 C 168.377 88.212,170.243 26.697,141.040 13.656 C 139.751 13.080,137.799 11.555,136.703 10.266 C 131.559 4.219,120.442 2.609,83.850 2.609 L 55.652 2.609 55.652 20.839 M191.014 10.145 C 190.696 10.464,190.435 22.984,190.435 37.968 L 190.435 65.212 196.739 65.119 C 200.407 65.065,203.311 64.612,203.682 64.035 C 204.143 63.320,204.325 63.347,204.335 64.130 C 204.377 67.563,223.520 64.299,227.474 60.185 C 234.513 52.862,235.682 25.133,229.329 16.195 C 225.719 11.115,206.227 6.793,204.714 10.736 C 204.229 11.999,203.975 12.012,202.327 10.857 C 200.477 9.562,192.124 9.036,191.014 10.145 M250.981 10.281 C 249.318 10.611,249.271 10.869,250.465 13.101 C 251.178 14.433,251.081 14.783,249.994 14.783 C 248.841 14.783,248.663 15.857,248.876 21.522 L 249.130 28.261 252.052 28.122 C 256.962 27.889,257.313 26.637,254.096 20.823 C 250.306 13.971,251.092 14.236,255.524 21.304 C 257.717 24.802,259.660 26.962,260.621 26.970 C 261.842 26.980,261.918 27.145,260.976 27.742 C 258.474 29.327,261.004 30.639,265.795 30.242 C 272.263 29.705,272.848 28.846,269.885 24.230 C 268.545 22.143,266.714 19.065,265.816 17.391 C 262.250 10.745,262.094 10.618,257.102 10.300 C 254.515 10.135,251.760 10.127,250.981 10.281 M175.611 14.130 C 175.588 16.163,175.591 23.500,175.616 30.435 C 175.641 37.370,175.647 48.033,175.629 54.130 L 175.596 65.217 181.660 65.217 C 184.995 65.217,187.912 64.912,188.143 64.538 C 188.580 63.832,188.902 41.935,188.771 21.957 L 188.696 10.435 182.174 10.435 L 175.652 10.435 175.611 14.130 M234.534 14.565 C 233.612 23.549,234.579 47.826,235.859 47.826 C 236.292 47.826,236.055 48.417,235.332 49.140 C 234.475 49.997,234.105 51.734,234.266 54.140 C 234.402 56.167,234.573 59.506,234.648 61.560 L 234.783 65.294 241.087 65.038 L 247.391 64.783 247.574 37.609 L 247.757 10.435 241.357 10.435 L 234.958 10.435 234.534 14.565 M280.310 11.751 C 280.032 12.474,280.030 15.898,280.304 19.359 C 280.579 22.820,280.803 28.978,280.803 33.043 L 280.802 40.435 286.053 48.947 C 288.941 53.628,291.304 57.787,291.304 58.188 C 291.304 58.589,291.891 59.405,292.609 60.000 C 294.001 61.156,294.000 61.170,294.000 43.043 C 294.000 39.457,293.980 30.652,293.957 23.478 L 293.913 10.435 287.364 10.435 C 282.319 10.435,280.699 10.737,280.310 11.751 M311.639 11.841 C 306.594 13.630,301.189 18.559,298.532 23.793 C 295.973 28.836,294.665 39.287,296.456 40.394 C 297.219 40.865,297.227 41.324,296.489 42.213 C 295.946 42.867,295.811 43.901,296.188 44.512 C 296.566 45.122,296.921 46.258,296.978 47.036 C 297.330 51.803,306.935 62.609,310.821 62.609 C 311.987 62.609,313.183 63.000,313.478 63.478 C 314.369 64.919,316.325 64.466,318.470 62.321 C 321.931 58.860,320.659 54.130,315.872 52.659 C 306.639 49.821,306.987 27.247,316.338 22.444 C 320.427 20.344,320.435 20.331,320.696 15.387 L 320.956 10.435 318.087 10.503 C 316.509 10.541,313.607 11.143,311.639 11.841 M321.739 15.513 L 321.739 20.591 325.350 21.783 C 327.983 22.652,329.772 24.103,331.954 27.140 C 335.440 31.992,335.288 31.959,340.898 29.116 C 345.906 26.579,346.068 25.876,342.779 20.979 C 338.936 15.256,330.658 10.435,324.676 10.435 L 321.739 10.435 321.739 15.513 M217.921 23.026 C 218.824 24.262,219.130 27.923,219.130 37.494 C 219.130 52.909,218.538 53.913,209.448 53.913 L 204.348 53.913 204.348 48.747 C 204.348 43.625,203.120 41.271,201.655 43.584 C 201.238 44.243,200.890 44.422,200.883 43.982 C 200.876 43.541,201.549 42.429,202.380 41.511 C 203.571 40.195,203.960 37.815,204.219 30.263 L 204.547 20.685 210.629 21.028 C 215.343 21.295,216.983 21.744,217.921 23.026 M252.215 29.497 C 251.521 29.950,250.672 30.147,250.329 29.935 C 249.266 29.277,248.580 39.874,248.861 52.609 L 249.130 64.783 255.409 65.038 C 263.121 65.351,262.851 65.985,262.457 48.504 C 262.241 38.910,261.863 35.540,260.870 34.345 C 260.152 33.482,259.688 32.054,259.837 31.171 C 259.987 30.288,259.987 29.550,259.837 29.532 C 259.688 29.514,258.196 29.314,256.522 29.087 C 254.848 28.860,252.910 29.045,252.215 29.497 M270.000 30.435 C 269.043 30.846,266.989 31.210,265.435 31.243 C 261.499 31.328,261.572 31.525,272.039 49.130 L 281.344 64.783 287.629 65.038 C 295.045 65.340,294.889 65.754,290.121 58.432 C 288.035 55.229,285.484 51.043,284.451 49.130 C 277.676 36.576,273.265 29.513,272.273 29.626 C 271.979 29.660,270.957 30.024,270.000 30.435 M322.776 38.139 C 322.009 38.626,321.726 40.389,321.906 43.561 L 322.174 48.261 327.256 48.524 L 332.338 48.787 329.865 50.921 C 328.504 52.094,326.707 53.273,325.872 53.541 C 325.036 53.810,324.125 55.079,323.847 56.362 C 323.570 57.646,322.930 59.550,322.426 60.594 C 320.213 65.170,323.258 66.285,330.474 63.543 C 341.038 59.529,349.852 46.461,346.651 39.558 C 345.533 37.148,337.415 36.387,333.751 38.348 C 332.452 39.043,332.125 39.043,332.555 38.348 C 333.263 37.202,324.547 37.016,322.776 38.139 M180.817 72.271 C 180.277 73.281,180.014 75.046,180.233 76.192 C 180.519 77.689,180.350 78.043,179.634 77.449 C 178.064 76.146,176.251 77.779,176.922 79.891 C 177.293 81.059,177.133 81.739,176.487 81.739 C 175.926 81.739,175.691 82.326,175.967 83.043 C 176.242 83.761,176.088 84.348,175.625 84.348 C 175.162 84.348,174.783 85.326,174.783 86.522 C 174.783 87.748,175.285 88.696,175.936 88.696 C 176.723 88.696,176.969 89.523,176.709 91.295 C 176.499 92.725,175.974 93.677,175.542 93.410 C 175.084 93.127,174.782 101.637,174.815 113.893 L 174.873 134.861 177.005 135.833 C 179.462 136.952,180.699 136.238,179.275 134.522 C 178.553 133.652,178.576 133.077,179.361 132.291 C 180.194 131.459,180.169 131.077,179.248 130.507 C 178.424 129.998,178.363 129.605,179.044 129.184 C 179.576 128.855,180.247 129.197,180.534 129.945 C 180.821 130.693,181.796 131.304,182.702 131.304 C 184.664 131.304,184.888 132.650,183.043 133.358 C 182.326 133.633,181.739 134.200,181.739 134.618 C 181.739 135.776,188.780 137.655,189.694 136.741 C 190.764 135.671,190.720 105.747,189.648 105.390 C 189.148 105.223,189.298 103.729,190.019 101.685 C 191.590 97.233,191.122 79.272,189.403 78.063 C 188.492 77.422,188.513 77.327,189.505 77.595 C 190.190 77.780,191.202 79.277,191.754 80.922 L 192.758 83.913 202.249 84.348 C 207.468 84.587,214.380 84.653,217.609 84.494 L 223.478 84.205 223.478 77.794 L 223.478 71.383 220.652 70.929 C 219.098 70.679,212.177 70.563,205.272 70.672 L 192.719 70.870 191.828 73.913 L 190.938 76.957 190.638 74.219 C 190.191 70.139,182.749 68.663,180.817 72.271 M230.313 71.169 C 228.751 71.648,226.087 73.996,226.087 74.893 C 226.087 75.284,227.652 75.470,229.565 75.308 C 231.478 75.146,233.043 75.112,233.043 75.233 C 233.043 77.657,230.560 79.752,229.245 78.438 C 227.371 76.564,226.182 78.084,226.385 82.094 L 226.522 84.783 250.977 84.961 L 275.433 85.140 275.523 81.048 C 275.638 75.870,275.027 73.913,273.298 73.913 C 272.546 73.913,271.393 74.598,270.735 75.435 C 270.078 76.272,269.592 76.565,269.656 76.087 C 270.011 73.413,269.472 72.023,268.261 72.488 C 267.466 72.793,266.957 72.490,266.957 71.712 C 266.957 70.496,234.094 70.009,230.313 71.169 M278.469 71.157 C 277.026 72.073,277.078 126.197,278.523 127.108 C 279.165 127.512,279.108 128.110,278.341 129.034 C 277.594 129.933,277.423 131.529,277.821 133.883 C 278.472 137.735,279.666 138.497,280.256 135.435 L 280.633 133.478 280.751 135.499 C 280.934 138.611,283.455 137.517,285.794 133.311 C 287.644 129.984,287.119 126.489,285.229 129.547 C 284.820 130.209,284.565 129.745,284.565 128.337 C 284.565 126.553,284.814 126.261,285.705 127.001 C 286.929 128.016,290.435 126.732,290.435 125.268 C 290.435 124.852,291.217 124.715,292.174 124.965 C 293.801 125.391,293.913 124.992,293.913 118.746 C 293.913 113.611,294.164 112.234,295.000 112.775 C 295.598 113.162,298.630 113.570,301.739 113.683 C 311.263 114.028,311.676 114.054,313.772 114.460 C 315.748 114.843,315.764 114.917,314.339 117.093 C 313.033 119.084,313.016 119.475,314.179 120.638 C 315.773 122.232,317.391 121.400,317.391 118.986 C 317.391 117.719,317.788 117.358,318.767 117.733 C 319.523 118.023,320.971 118.261,321.984 118.261 C 323.417 118.261,323.594 118.493,322.783 119.304 C 321.158 120.929,321.549 122.451,323.696 122.865 L 325.652 123.241 323.696 123.360 C 322.620 123.425,321.739 123.948,321.739 124.522 C 321.739 125.333,321.507 125.333,320.696 124.522 C 319.227 123.053,316.522 123.222,316.522 124.783 C 316.522 125.500,316.974 126.087,317.526 126.087 C 318.127 126.087,317.952 126.726,317.091 127.677 C 315.078 129.902,315.290 131.373,317.958 133.665 C 320.375 135.742,322.609 135.154,322.609 132.440 C 322.609 131.394,322.844 131.415,323.998 132.569 C 324.761 133.333,325.180 134.496,324.927 135.154 C 324.649 135.878,325.217 136.551,326.365 136.859 C 329.443 137.685,329.781 137.499,329.226 135.289 C 328.909 134.027,329.105 133.052,329.717 132.848 C 330.468 132.598,330.340 130.810,329.229 126.037 C 328.401 122.477,327.333 117.814,326.856 115.673 C 326.379 113.532,325.586 111.532,325.094 111.228 C 324.602 110.924,324.233 110.425,324.274 110.120 C 324.516 108.309,324.131 107.690,322.221 106.820 L 320.094 105.850 322.873 104.011 C 327.608 100.878,332.373 89.127,329.603 87.415 C 329.146 87.132,328.989 86.334,329.255 85.642 C 330.767 81.700,323.386 72.970,320.050 74.756 C 318.502 75.585,318.132 75.426,317.453 73.641 C 315.789 69.265,294.907 69.009,294.690 73.362 C 294.610 74.979,294.476 74.909,293.653 72.826 C 292.679 70.363,281.633 69.149,278.469 71.157 M351.592 72.875 C 339.834 77.654,333.533 86.648,331.707 101.257 C 331.179 105.484,331.322 106.349,332.720 107.408 C 333.663 108.122,333.891 108.652,333.261 108.668 C 331.829 108.704,331.869 110.951,333.325 112.311 C 333.958 112.902,334.309 114.260,334.105 115.328 C 333.730 117.289,337.108 124.348,338.421 124.348 C 338.811 124.348,339.150 124.837,339.173 125.435 C 339.261 127.682,345.762 133.085,350.423 134.783 C 356.533 137.010,357.206 136.975,359.683 134.303 C 361.758 132.064,362.641 126.087,360.897 126.087 C 360.434 126.087,360.280 125.500,360.555 124.783 C 360.887 123.916,360.513 123.468,359.441 123.447 C 346.351 123.198,343.913 92.503,356.466 85.988 C 358.649 84.855,361.264 83.220,362.278 82.354 C 364.061 80.831,364.136 80.833,364.553 82.432 C 364.810 83.411,366.046 84.296,367.589 84.605 C 372.647 85.616,379.130 93.578,379.130 98.778 C 379.130 100.551,379.561 100.875,381.957 100.904 L 384.783 100.938 381.957 102.166 C 379.137 103.391,379.032 103.641,378.758 109.732 C 378.700 111.019,378.369 112.356,378.022 112.703 C 377.675 113.050,377.391 114.021,377.391 114.861 C 377.391 117.308,373.358 121.422,369.351 123.061 C 367.317 123.893,366.138 124.750,366.731 124.966 C 367.537 125.258,367.469 125.699,366.464 126.704 C 365.723 127.444,365.334 128.616,365.600 129.307 C 365.865 129.998,365.546 131.100,364.891 131.755 C 362.067 134.579,364.214 137.646,368.599 137.049 C 382.783 135.119,393.950 122.409,394.464 107.609 C 394.626 102.968,394.387 100.870,393.697 100.870 C 392.978 100.870,392.961 100.604,393.639 99.927 C 394.689 98.876,394.151 95.652,392.925 95.652 C 392.494 95.652,392.372 94.730,392.655 93.603 C 394.047 88.055,384.170 76.468,375.182 73.105 C 369.310 70.908,364.348 70.704,364.348 72.660 C 364.348 73.406,363.950 73.770,363.464 73.469 C 362.978 73.169,362.805 72.559,363.081 72.114 C 363.927 70.745,355.452 71.306,351.592 72.875 M289.808 73.292 C 290.064 73.959,289.576 74.410,288.597 74.410 C 286.914 74.410,286.511 73.779,287.536 72.754 C 288.437 71.853,289.338 72.066,289.808 73.292 M303.068 84.544 C 312.907 85.059,315.122 86.612,314.437 92.519 C 313.791 98.097,311.616 99.495,302.806 100.000 L 295.217 100.435 294.715 106.087 C 294.439 109.196,294.211 104.109,294.209 94.783 C 294.207 85.457,294.356 79.241,294.540 80.971 L 294.874 84.116 303.068 84.544 M245.089 86.715 C 242.993 87.205,242.938 87.834,242.749 113.696 L 242.576 137.391 250.317 137.391 C 257.610 137.391,258.088 137.278,258.582 135.435 C 259.491 132.043,259.197 114.926,258.219 114.322 C 257.592 113.934,257.616 113.386,258.295 112.568 C 259.423 111.208,259.135 88.410,257.975 87.250 C 257.253 86.528,247.605 86.128,245.089 86.715 M182.417 93.028 C 181.853 93.931,181.123 94.504,180.794 94.301 C 180.466 94.099,179.984 94.750,179.723 95.749 C 179.432 96.861,178.851 97.321,178.227 96.935 C 177.636 96.570,177.547 96.075,178.014 95.761 C 178.459 95.462,179.075 94.533,179.384 93.696 C 179.693 92.859,180.568 92.174,181.328 92.174 C 182.152 92.174,182.461 91.768,182.091 91.170 C 181.710 90.554,181.852 90.402,182.457 90.776 C 183.188 91.227,183.178 91.810,182.417 93.028 M101.178 94.420 C 101.905 94.699,102.293 95.463,102.042 96.118 C 101.684 97.051,101.236 97.092,99.979 96.307 C 97.673 94.867,98.589 93.426,101.178 94.420 M71.304 97.371 C 71.304 97.804,70.847 98.441,70.287 98.787 C 69.609 99.206,69.449 98.947,69.808 98.013 C 70.186 97.028,69.971 96.754,69.086 97.094 C 68.301 97.395,67.826 97.039,67.826 96.149 C 67.826 94.991,68.154 94.897,69.565 95.652 C 70.522 96.164,71.304 96.937,71.304 97.371 M96.836 96.087 C 96.561 96.804,95.693 97.379,94.907 97.364 C 93.694 97.340,93.733 97.143,95.166 96.059 C 97.276 94.464,97.458 94.467,96.836 96.087 M192.174 96.858 C 192.174 97.438,192.643 98.383,193.217 98.957 C 194.029 99.768,193.932 100.000,192.783 100.000 C 191.633 100.000,191.304 100.788,191.304 103.540 C 191.304 107.605,193.266 110.315,195.104 108.790 C 195.733 108.268,196.480 108.074,196.765 108.359 C 197.359 108.954,219.992 108.993,220.585 108.401 C 221.680 107.306,221.897 98.195,220.858 96.943 C 219.395 95.180,192.174 95.099,192.174 96.858 M91.522 98.949 C 90.685 99.806,89.854 100.152,89.677 99.718 C 89.499 99.284,89.890 98.589,90.546 98.174 C 92.579 96.886,93.118 97.315,91.522 98.949 M68.261 112.174 C 67.965 112.652,68.138 113.043,68.644 113.043 C 69.151 113.043,69.565 113.438,69.565 113.920 C 69.565 114.446,68.883 114.371,67.861 113.733 C 66.631 112.965,66.449 112.482,67.209 112.000 C 68.631 111.096,68.900 111.140,68.261 112.174 M109.565 122.422 C 109.565 122.798,108.783 123.106,107.826 123.106 C 106.870 123.106,106.087 122.798,106.087 122.422 C 106.087 122.047,106.870 121.739,107.826 121.739 C 108.783 121.739,109.565 122.047,109.565 122.422 M195.778 124.270 C 195.306 124.562,194.650 125.876,194.320 127.191 C 193.990 128.506,193.372 129.797,192.947 130.060 C 190.969 131.282,192.133 136.478,194.519 137.077 C 196.000 137.449,196.989 137.295,197.201 136.659 C 197.621 135.398,201.439 135.332,202.206 136.573 C 203.017 137.885,207.278 137.206,207.982 135.652 C 208.461 134.597,208.585 134.645,208.635 135.903 C 208.689 137.295,209.499 137.432,216.304 137.208 L 223.913 136.957 224.004 131.783 C 224.053 128.938,223.910 125.905,223.685 125.044 C 223.264 123.435,220.000 122.802,220.000 124.329 C 220.000 124.840,219.106 124.773,217.762 124.160 C 216.118 123.411,215.116 123.395,213.988 124.099 C 213.050 124.685,211.976 124.757,211.227 124.284 C 209.879 123.433,197.150 123.422,195.778 124.270 M197.583 130.217 C 197.800 131.054,197.813 132.228,197.612 132.826 C 196.959 134.768,196.027 133.976,195.823 131.304 C 195.610 128.508,196.929 127.694,197.583 130.217 M150.435 137.422 C 150.435 139.847,150.284 139.981,148.578 139.068 C 147.095 138.274,146.964 137.921,147.926 137.311 C 148.794 136.762,148.827 136.545,148.043 136.535 C 147.446 136.528,146.957 136.130,146.957 135.652 C 146.957 135.174,147.739 134.783,148.696 134.783 C 150.053 134.783,150.435 135.362,150.435 137.422 M191.572 142.425 C 190.301 143.233,180.000 171.671,180.000 174.370 C 180.000 175.436,179.413 176.796,178.696 177.391 C 177.978 177.987,177.391 179.023,177.391 179.693 C 177.391 180.364,176.609 183.140,175.652 185.861 C 174.684 188.617,173.913 193.038,173.913 195.839 L 173.913 200.870 180.217 200.866 L 186.522 200.862 192.068 181.390 C 198.841 157.605,198.462 158.228,200.832 167.012 C 201.896 170.956,202.961 174.688,203.197 175.304 C 203.508 176.115,202.343 176.499,198.988 176.691 C 193.951 176.979,193.595 177.433,191.776 185.870 L 191.166 188.696 199.389 188.696 L 207.613 188.696 209.191 194.783 L 210.770 200.870 218.428 200.870 C 227.480 200.870,227.148 201.990,222.251 187.952 C 220.141 181.905,215.834 169.559,212.681 160.519 C 209.528 151.478,206.510 143.554,205.976 142.910 C 204.916 141.633,193.426 141.246,191.572 142.425 M227.357 142.826 C 227.129 143.424,227.044 156.630,227.167 172.174 L 227.391 200.435 241.304 200.650 C 260.894 200.953,266.075 199.101,271.105 190.000 C 275.564 181.932,273.110 152.936,267.493 147.319 C 262.349 142.175,243.106 139.214,242.012 143.398 C 241.585 145.030,241.552 145.030,239.920 143.398 C 237.933 141.412,228.068 140.963,227.357 142.826 M274.871 142.937 C 273.846 144.172,273.506 194.838,274.496 198.913 C 275.119 201.477,288.696 202.011,288.696 199.472 C 288.696 198.519,288.212 198.243,287.174 198.605 C 285.755 199.099,285.752 199.057,287.123 197.987 C 289.036 196.494,289.494 149.164,287.603 148.400 C 286.745 148.054,286.747 147.949,287.609 147.895 C 289.215 147.793,288.964 142.898,287.320 142.267 C 284.630 141.235,275.894 141.705,274.871 142.937 M311.603 142.704 C 300.219 144.770,292.229 153.924,290.153 167.278 C 289.303 172.742,289.364 173.355,290.865 174.452 C 291.768 175.112,292.040 175.652,291.471 175.652 C 289.964 175.652,290.200 178.225,291.761 178.824 C 292.711 179.189,292.832 179.642,292.188 180.418 C 289.780 183.319,299.810 196.798,305.209 197.915 C 306.409 198.163,308.071 198.734,308.901 199.183 C 311.380 200.524,312.905 200.120,313.200 198.043 C 313.386 196.737,313.984 196.172,315.000 196.342 C 316.084 196.524,316.518 196.024,316.510 194.603 C 316.486 190.609,315.514 188.995,312.468 187.893 C 301.578 183.956,301.580 161.305,312.471 155.100 C 320.349 150.611,319.693 141.235,311.603 142.704 M318.261 148.261 C 318.261 152.786,318.530 153.913,319.608 153.913 C 323.807 153.913,330.163 160.204,331.228 165.414 C 331.633 167.395,332.415 168.357,333.942 168.756 L 336.087 169.316 333.696 169.969 C 331.629 170.534,331.304 171.066,331.304 173.878 C 331.304 180.510,328.291 185.833,323.385 187.865 C 321.388 188.692,320.741 189.625,320.314 192.302 C 320.015 194.166,319.432 195.901,319.016 196.158 C 316.118 197.949,318.369 201.091,322.177 200.569 C 333.975 198.952,346.131 185.634,344.971 175.595 C 344.750 173.681,344.950 172.174,345.425 172.174 C 345.898 172.174,345.989 171.502,345.629 170.652 C 345.275 169.815,345.042 168.080,345.111 166.796 C 345.180 165.513,344.841 164.218,344.357 163.919 C 343.874 163.620,343.478 162.197,343.478 160.758 C 343.478 153.413,330.479 142.680,321.522 142.628 L 318.261 142.609 318.261 148.261 M254.416 154.343 C 257.518 155.026,258.261 158.414,258.261 171.880 L 258.261 184.548 255.829 186.776 C 253.746 188.684,252.562 189.013,247.570 189.067 L 241.741 189.130 241.740 183.435 C 241.740 180.302,241.333 177.333,240.837 176.837 C 240.214 176.214,240.214 175.201,240.837 173.563 C 241.333 172.259,241.739 167.192,241.739 162.304 L 241.739 153.417 247.174 153.681 C 250.163 153.826,253.422 154.124,254.416 154.343 M140.000 155.987 C 140.000 156.171,139.022 156.963,137.826 157.746 C 136.630 158.530,135.652 158.830,135.652 158.414 C 135.652 157.998,136.533 157.232,137.609 156.713 C 139.969 155.575,140.000 155.566,140.000 155.987 M117.217 165.391 C 118.638 166.811,118.529 167.826,116.957 167.826 C 116.239 167.826,115.652 167.662,115.652 167.462 C 115.652 167.262,115.415 166.480,115.124 165.723 C 114.502 164.100,115.731 163.905,117.217 165.391 M128.352 184.096 C 127.529 184.996,124.488 182.840,123.723 180.814 L 122.761 178.264 125.640 181.089 C 127.224 182.642,128.444 183.995,128.352 184.096 M132.174 197.389 C 132.174 197.809,131.391 198.094,130.435 198.022 C 128.491 197.875,128.116 196.874,129.783 196.277 C 131.074 195.813,132.174 196.325,132.174 197.389 M145.217 198.234 C 145.217 199.411,144.803 199.786,143.891 199.436 C 142.868 199.044,142.793 198.652,143.563 197.725 C 144.903 196.110,145.217 196.206,145.217 198.234 " stroke="none" fill="#000000" fill-rule="evenodd"></path></g></svg>